<svg width="36" height="36" viewBox="0 0 36 36" fill="none" xmlns="http://www.w3.org/2000/svg">
<path fill-rule="evenodd" clip-rule="evenodd" d="M31.654 4.35147C32.1226 4.8201 32.1226 5.5799 31.654 6.04853L24.0602 13.6423C23.5916 14.1109 22.8318 14.1109 22.3632 13.6423L18.3515 9.63056C17.8828 9.16193 17.8828 8.40213 18.3515 7.9335C18.8201 7.46487 19.5799 7.46487 20.0485 7.9335L23.2117 11.0967L29.9569 4.35147C30.4256 3.88284 31.1854 3.88284 31.654 4.35147Z" fill="#55A76A"/>
<path d="M16.878 11.3747C15.5497 10.0938 15.5497 8.01717 16.878 6.73634C17.6515 5.99051 18.7047 5.67897 19.712 5.80173L19.5032 5.60039C18.673 4.79987 17.327 4.79987 16.4968 5.60039L4.62263 17.0505C3.79246 17.851 3.79246 19.149 4.62263 19.9495L16.4968 31.3996C17.327 32.2001 18.673 32.2001 19.5032 31.3996L31.3774 19.9495C32.2075 19.149 32.2075 17.851 31.3774 17.0505L27.8537 13.6527L25.9522 15.4864C24.6239 16.7672 22.4703 16.7672 21.142 15.4864L16.878 11.3747Z" fill="#DB5C5C"/>
</svg>
