<svg width="36" height="36" viewBox="0 0 36 36" fill="none" xmlns="http://www.w3.org/2000/svg">
<path d="M7.5 31H4.5C3.39543 31 2.5 30.1046 2.5 29V7C2.5 5.89543 3.39543 5 4.5 5H7.5" stroke="black" stroke-width="1.5" stroke-linecap="round"/>
<path d="M28.5 31H31.5C32.6046 31 33.5 30.1046 33.5 29V7C33.5 5.89543 32.6046 5 31.5 5H28.5" stroke="black" stroke-width="1.5" stroke-linecap="round"/>
<path fill-rule="evenodd" clip-rule="evenodd" d="M13.5543 26.611L7.08726 19.1004C6.30377 18.1904 6.30431 16.7952 7.08849 15.8859L13.5549 8.38831C14.2449 7.58828 15.5 8.10705 15.5 9.19226V25.8077C15.5 26.8934 14.244 27.412 13.5543 26.611Z" fill="#E55765"/>
<path fill-rule="evenodd" clip-rule="evenodd" d="M22.6619 8.38902L29.8475 15.8996C30.718 16.8096 30.7174 18.2048 29.8461 19.1141L22.6612 26.6117C21.8946 27.4117 20.5 26.893 20.5 25.8077L20.5 9.19227C20.5 8.10658 21.8956 7.58805 22.6619 8.38902Z" fill="#55A76A"/>
</svg>
