<svg width="36" height="36" viewBox="0 0 36 36" fill="none" xmlns="http://www.w3.org/2000/svg">
<path d="M23.25 12.6667C23.25 11.5989 24.1081 10.7333 25.1667 10.7333H27.0833C28.1419 10.7333 29 11.5989 29 12.6667V14.6C29 15.6678 28.1419 16.5333 27.0833 16.5333H25.1667C24.1081 16.5333 23.25 15.6678 23.25 14.6V12.6667Z" fill="#548AF7"/>
<path d="M23.25 28.1333C23.25 27.0656 24.1081 26.2 25.1667 26.2H27.0833C28.1419 26.2 29 27.0656 29 28.1333V30.0667C29 31.1344 28.1419 32 27.0833 32H25.1667C24.1081 32 23.25 31.1344 23.25 30.0667V28.1333Z" fill="#548AF7"/>
<path d="M11.75 28.1333V20.4C11.75 19.3322 12.6081 18.4667 13.6667 18.4667H18.4583L20.375 20.4H25.1667C26.2252 20.4 27.0833 21.2656 27.0833 22.3333V24.2667H25.1667C23.0496 24.2667 21.3333 25.9978 21.3333 28.1333V30.0667H13.6667C12.6081 30.0667 11.75 29.2011 11.75 28.1333Z" fill="#F1F0F4"/>
<path d="M11.75 12.6667V4.93333C11.75 3.86558 12.6081 3 13.6667 3H18.4583L20.375 4.93333H25.1667C26.2252 4.93333 27.0833 5.79892 27.0833 6.86667V8.8H25.1667C23.0496 8.8 21.3333 10.5312 21.3333 12.6667V14.6H13.6667C12.6081 14.6 11.75 13.7344 11.75 12.6667Z" fill="#F1F0F4"/>
<path d="M7.91667 3.96667C7.91667 3.43279 7.48761 3 6.95833 3C6.42906 3 6 3.43279 6 3.96667V29.1C6 29.6339 6.42906 30.0667 6.95833 30.0667C7.48761 30.0667 7.91667 29.6339 7.91667 29.1V24.2667H11.75V28.1333C11.75 29.2011 12.6081 30.0667 13.6667 30.0667H21.3333V28.1333H13.6667V20.4H17.6644L19.5811 22.3333H25.1667V24.2667H27.0833V22.3333C27.0833 21.2656 26.2252 20.4 25.1667 20.4H20.375L18.4583 18.4667H13.6667C12.6081 18.4667 11.75 19.3322 11.75 20.4V22.3333H7.91667V8.8H11.75V12.6667C11.75 13.7344 12.6081 14.6 13.6667 14.6H21.3333V12.6667H13.6667V4.93333L17.6644 4.93333L19.5811 6.86667H25.1667V8.8H27.0833V6.86667C27.0833 5.79892 26.2252 4.93333 25.1667 4.93333H20.375L18.4583 3H13.6667C12.6081 3 11.75 3.86558 11.75 4.93333V6.86667H7.91667V3.96667Z" fill="black"/>
</svg>
